<svg xmlns="http://www.w3.org/2000/svg" viewBox="0 0 64 64" fill="none" role="img" aria-label="Chacachon Stories">
  <rect width="64" height="64" rx="16" fill="#12141C"/>
  <path d="M44 18C44 18 40 14 32 14C24 14 20 18 20 18V42C20 42 24 38 32 38C40 38 44 42 44 42V18Z" fill="#1C2030" stroke="#E8C47A" stroke-width="2"/>
  <path d="M32 14C32 14 28 10 20 10C16 10 14 12 14 12V36" stroke="#8B7CF6" stroke-width="2" stroke-linecap="round"/>
  <path d="M14 10C18 8 24 8 28 12" stroke="#E8C47A" stroke-width="2" stroke-linecap="round"/>
  <circle cx="48" cy="16" r="8" fill="#E8C47A" opacity="0.25"/>
  <path d="M44 16C44 13.79 45.79 12 48 12C50.21 12 52 13.79 52 16C52 20 48 24 48 24C48 24 44 20 44 16Z" fill="#E8C47A"/>
  <circle cx="28" cy="28" r="1.5" fill="#E86A5A"/>
  <circle cx="36" cy="28" r="1.5" fill="#E86A5A"/>
</svg>
